HIERARCHY
ROOT Hips
{
	OFFSET -1.602300 6.242603 43.997101
	CHANNELS 6 Xposition Yposition Zposition Zrotation Xrotation Yrotation
	JOINT Chest
	{
		OFFSET -0.204900 1.598101 7.917301
		CHANNELS 6 Xposition Yposition Zposition Zrotation Xrotation Yrotation
		JOINT Chest2
		{
			OFFSET 0.000000 0.000000 3.404099
			CHANNELS 6 Xposition Yposition Zposition Zrotation Xrotation Yrotation
			JOINT Neck
			{
				OFFSET 0.000000 0.000000 7.928600
				CHANNELS 6 Xposition Yposition Zposition Zrotation Xrotation Yrotation
				JOINT Head
				{
					OFFSET 0.000000 0.000000 2.173897
					CHANNELS 6 Xposition Yposition Zposition Zrotation Xrotation Yrotation
					End Site
					{
						OFFSET 0.000000 0.000001 10.404503
					}
				}
			}
			JOINT LeftCollar
			{
				OFFSET 2.833800 -1.396299 4.843300
				CHANNELS 6 Xposition Yposition Zposition Zrotation Xrotation Yrotation
				JOINT LeftShoulder
				{
					OFFSET 4.363600 0.000000 0.000000
					CHANNELS 6 Xposition Yposition Zposition Zrotation Xrotation Yrotation
					JOINT LeftElbow
					{
						OFFSET 0.000000 -0.000001 -10.306900
						CHANNELS 6 Xposition Yposition Zposition Zrotation Xrotation Yrotation
						JOINT LeftWrist
						{
							OFFSET 0.000000 -0.000001 -12.404900
							CHANNELS 6 Xposition Yposition Zposition Zrotation Xrotation Yrotation
							End Site
							{
								OFFSET 0.000000 0.000000 -2.173901
							}
						}
					}
				}
			}
			JOINT RightCollar
			{
				OFFSET -2.354800 -1.897200 5.063099
				CHANNELS 6 Xposition Yposition Zposition Zrotation Xrotation Yrotation
				JOINT RightShoulder
				{
					OFFSET -4.375800 0.000000 0.000000
					CHANNELS 6 Xposition Yposition Zposition Zrotation Xrotation Yrotation
					JOINT RightElbow
					{
						OFFSET 0.000000 -0.000001 -10.005001
						CHANNELS 6 Xposition Yposition Zposition Zrotation Xrotation Yrotation
						JOINT RightWrist
						{
							OFFSET 0.000000 -0.000001 -13.174900
							CHANNELS 6 Xposition Yposition Zposition Zrotation Xrotation Yrotation
							End Site
							{
								OFFSET 0.000000 0.000000 -2.173901
							}
						}
					}
				}
			}
		}
	}
	JOINT LeftHip
	{
		OFFSET 2.240600 0.386800 -2.614101
		CHANNELS 6 Xposition Yposition Zposition Zrotation Xrotation Yrotation
		JOINT LeftKnee
		{
			OFFSET 0.000000 -0.000001 -18.592899
			CHANNELS 6 Xposition Yposition Zposition Zrotation Xrotation Yrotation
			JOINT LeftAnkle
			{
				OFFSET 0.000000 -0.000001 -18.765800
				CHANNELS 6 Xposition Yposition Zposition Zrotation Xrotation Yrotation
				End Site
				{
					OFFSET 0.000000 -8.655000 0.000000
				}
			}
		}
	}
	JOINT RightHip
	{
		OFFSET -2.014900 -0.220900 -2.615898
		CHANNELS 6 Xposition Yposition Zposition Zrotation Xrotation Yrotation
		JOINT RightKnee
		{
			OFFSET 0.000000 -0.000001 -18.633900
			CHANNELS 6 Xposition Yposition Zposition Zrotation Xrotation Yrotation
			JOINT RightAnkle
			{
				OFFSET 0.000000 -0.000001 -18.285101
				CHANNELS 6 Xposition Yposition Zposition Zrotation Xrotation Yrotation
				End Site
				{
					OFFSET 0.000000 -7.524500 0.000000
				}
			}
		}
	}
}
MOTION
Frames: 10
Frame Time: 0.041667
-5.449799 26.697304 7.480110 3.650132 -6.630538 5.661866 -0.204901 1.598101 7.917309 -1.668434 20.793456 -5.425920 -0.000001 -0.000000 3.404105 7.635225 -15.983623 -0.753683 0.000001 0.000002 7.928606 -48.666891 6.869616 17.742774 0.000000 0.000001 2.173908 -5.626842 2.043263 -7.432550 2.833799 -1.396297 4.843303 9.832137 6.374212 -2.781796 4.363594 0.000010 -0.000004 -37.304106 0.256210 -106.920410 -0.000004 0.000009 -10.306905 666.845958 -121.632733 655.499702 -0.000001 0.000004 -12.404899 -393.879797 145.857201 -168.530683 -2.354804 -1.897196 5.063108 12.266237 8.486755 -25.573519 -4.375790 0.000005 0.000002 14.787339 -24.042647 80.433052 0.000005 0.000000 -10.004995 -299.294354 -170.742927 -209.113113 -0.000003 0.000001 -13.174894 -187.878287 -167.335359 176.605988 2.240601 0.386801 -2.614105 136.200379 -39.422756 102.663433 0.000000 -0.000001 -18.592894 -112.216388 37.813635 132.897163 0.000002 0.000000 -18.765797 13.431227 36.659920 -11.227553 -2.014896 -0.220895 -2.615900 -114.935678 -16.901467 -89.793574 -0.000000 0.000002 -18.633888 180.993060 26.759991 -181.052223 -0.000006 -0.000005 -18.285084 -10.806861 35.145428 -211.358619
-5.450300 26.717005 7.472202 3.613060 -6.709141 5.659852 -0.204900 1.598100 7.917310 -1.573733 21.163392 -5.606049 -0.000001 0.000006 3.404101 7.523703 -15.997391 -0.682423 0.000002 0.000002 7.928603 -48.748296 6.874799 17.612500 -0.000001 0.000000 2.173896 -5.567508 2.100044 -7.396523 2.833801 -1.396302 4.843307 9.915901 6.309297 -2.856804 4.363592 0.000011 -0.000005 -37.431066 0.213698 -106.925375 -0.000001 0.000007 -10.306911 666.840712 -121.395083 655.407413 -0.000003 0.000003 -12.404896 -393.761608 145.662349 -168.455537 -2.354804 -1.897201 5.063102 12.196133 8.492473 -25.494444 -4.375793 0.000003 -0.000002 15.040331 -20.811979 79.948799 0.000003 0.000001 -10.004996 -303.262612 -170.322310 -210.995622 -0.000001 -0.000001 -13.174892 -186.580674 -167.119484 175.516710 2.240599 0.386804 -2.614099 136.183139 -39.360492 102.603669 0.000001 0.000001 -18.592894 -112.306547 37.840508 132.909525 0.000001 0.000001 -18.765797 13.606593 36.732511 -11.606833 -2.014894 -0.220894 -2.615893 -114.854876 -17.041699 -89.741767 -0.000001 0.000001 -18.633881 180.918146 26.802740 -181.083478 -0.000006 -0.000004 -18.285088 -10.788610 35.176902 -211.366173
-5.450398 26.736605 7.463806 3.591926 -6.794440 5.641552 -0.204902 1.598100 7.917308 -1.519809 21.546445 -5.598216 0.000000 -0.000001 3.404106 7.382791 -16.028381 -0.758703 0.000002 0.000002 7.928599 -48.810909 6.932175 17.466592 0.000002 0.000004 2.173909 -5.515001 2.147592 -7.344895 2.833800 -1.396298 4.843305 9.802803 6.370583 -3.079668 4.363593 0.000006 -0.000009 -37.317008 -0.060005 -106.880692 -0.000000 0.000005 -10.306908 667.073540 -120.976229 655.548770 0.000001 0.000003 -12.404902 -393.416601 145.627119 -168.338659 -2.354804 -1.897199 5.063104 12.231222 8.511601 -25.456410 -4.375793 0.000002 -0.000001 14.602181 -21.203530 79.296755 0.000005 0.000001 -10.004988 -303.684800 -169.969476 -212.846877 -0.000001 0.000001 -13.174891 -184.999444 -166.643229 173.212559 2.240600 0.386804 -2.614101 136.130410 -39.306035 102.515764 0.000001 0.000001 -18.592892 -112.393351 37.888231 132.928650 -0.000001 0.000001 -18.765797 13.767535 36.808340 -12.007117 -2.014897 -0.220897 -2.615900 -114.796151 -17.187479 -89.698176 0.000000 0.000000 -18.633883 180.850855 26.842049 -181.112916 -0.000006 -0.000006 -18.285086 -10.771937 35.207105 -211.366283
-5.449799 26.757303 7.454010 3.580986 -6.869950 5.607176 -0.204900 1.598100 7.917307 -1.485307 21.906322 -5.571712 0.000000 0.000002 3.404100 7.246904 -16.046944 -0.851328 0.000002 -0.000002 7.928601 -48.852207 7.014229 17.334084 0.000003 0.000000 2.173913 -5.501362 2.185099 -7.310850 2.833800 -1.396303 4.843304 9.456946 6.609939 -3.264821 4.363594 0.000009 -0.000008 -36.931526 -0.454432 -106.922035 -0.000001 0.000008 -10.306911 667.676345 -120.215988 655.956178 0.000000 0.000005 -12.404901 -392.634900 145.536318 -168.273649 -2.354802 -1.897204 5.063103 12.341079 8.575183 -25.528204 -4.375788 0.000004 0.000002 14.159817 -21.607647 78.802747 0.000007 0.000000 -10.004992 -304.149744 -169.815742 -214.687667 -0.000002 0.000001 -13.174891 -183.386508 -165.702657 170.358305 2.240599 0.386801 -2.614102 136.057874 -39.235250 102.420223 -0.000000 -0.000000 -18.592892 -112.482718 37.946007 132.947146 -0.000000 0.000001 -18.765795 13.909519 36.880552 -12.379595 -2.014898 -0.220895 -2.615897 -114.764882 -17.314178 -89.680903 0.000000 0.000003 -18.633886 180.798850 26.872374 -181.136453 -0.000006 -0.000004 -18.285088 -10.761780 35.231489 -211.352404
-5.447999 26.778603 7.442204 3.563305 -6.936028 5.570257 -0.204902 1.598100 7.917306 -1.430609 22.265496 -5.671530 -0.000000 -0.000006 3.404101 7.142094 -16.044049 -0.846114 0.000001 -0.000001 7.928598 -48.898673 7.069070 17.224127 0.000003 0.000003 2.173910 -5.469644 2.215334 -7.277414 2.833800 -1.396301 4.843303 9.065561 6.870813 -3.433268 4.363596 0.000005 -0.000006 -36.478234 -0.856546 -106.996703 -0.000005 0.000010 -10.306909 668.247731 -119.508762 656.303534 0.000000 0.000005 -12.404897 -391.875656 145.423566 -168.208134 -2.354804 -1.897203 5.063099 12.434543 8.619606 -25.527321 -4.375790 0.000004 -0.000001 13.663670 -21.990223 78.255793 0.000008 0.000005 -10.004995 -304.800224 -169.679589 -216.517079 -0.000005 -0.000001 -13.174894 -181.385823 -165.260921 166.969015 2.240599 0.386807 -2.614103 135.994708 -39.140501 102.333897 -0.000000 0.000001 -18.592892 -112.584884 38.000519 132.961066 -0.000001 -0.000000 -18.765797 14.034919 36.945197 -12.697263 -2.014897 -0.220894 -2.615899 -114.742807 -17.407427 -89.682597 -0.000000 0.000001 -18.633884 180.761872 26.891865 -181.153802 -0.000005 -0.000008 -18.285086 -10.759119 35.249216 -211.325657
-5.445699 26.799704 7.428406 3.519634 -7.022270 5.522174 -0.204901 1.598097 7.917306 -1.349362 22.665744 -5.763793 -0.000000 0.000004 3.404109 7.053689 -16.068423 -0.863153 0.000002 0.000002 7.928602 -48.982452 7.094001 17.174362 0.000002 -0.000001 2.173901 -5.385783 2.406907 -7.219465 2.833800 -1.396298 4.843305 8.573247 7.197227 -3.520928 4.363593 0.000005 0.000001 -35.888252 -1.191947 -107.115869 -0.000004 0.000011 -10.306904 668.453839 -119.315577 656.301512 0.000001 0.000005 -12.404895 -391.694082 145.326796 -168.119793 -2.354805 -1.897200 5.063103 12.515697 8.673969 -25.561153 -4.375792 0.000000 0.000000 13.173966 -22.334457 77.790008 0.000009 -0.000000 -10.004995 -305.444257 -169.597764 -218.290865 -0.000003 -0.000004 -13.174895 -179.653400 -164.164840 163.042285 2.240599 0.386804 -2.614104 135.948017 -39.043441 102.229695 -0.000000 -0.000000 -18.592892 -112.693395 38.045571 132.968989 -0.000001 0.000001 -18.765799 14.132698 36.996642 -12.923221 -2.014894 -0.220901 -2.615900 -114.694422 -17.502963 -89.675896 -0.000001 0.000001 -18.633883 180.729674 26.905814 -181.170235 -0.000006 -0.000008 -18.285086 -10.761298 35.263529 -211.292981
-5.443699 26.821901 7.413113 3.442150 -7.086641 5.464901 -0.204902 1.598096 7.917311 -1.239583 23.027634 -5.860898 0.000000 -0.000000 3.404100 6.983894 -16.055775 -0.874591 0.000001 0.000001 7.928600 -49.062024 7.128032 17.108096 0.000001 0.000002 2.173902 -5.356150 2.432110 -7.224612 2.833799 -1.396296 4.843303 7.889026 7.587731 -3.728338 4.363593 0.000010 -0.000006 -35.116738 -1.679179 -107.136141 -0.000003 0.000006 -10.306906 668.622900 -119.185134 656.264465 0.000003 0.000003 -12.404898 -391.562396 145.225572 -168.035289 -2.354805 -1.897199 5.063102 12.611351 8.709878 -25.500930 -4.375790 0.000004 -0.000000 12.617814 -22.603901 77.254589 0.000007 0.000004 -10.004997 -306.105009 -169.522891 -220.000120 -0.000004 0.000000 -13.174892 -178.053811 -162.982780 158.628671 2.240599 0.386802 -2.614103 135.944875 -38.921078 102.147740 0.000001 -0.000000 -18.592894 -112.799666 38.080453 132.968716 -0.000000 0.000001 -18.765797 14.217098 37.038569 -13.082002 -2.014898 -0.220897 -2.615897 -114.621667 -17.591608 -89.695164 -0.000001 0.000002 -18.633886 180.697572 26.920789 -181.189018 -0.000006 -0.000006 -18.285084 -10.767020 35.278368 -211.259308
-5.442199 26.845703 7.397213 3.318179 -7.135558 5.394227 -0.204901 1.598096 7.917310 -1.088749 23.368565 -5.952428 -0.000001 0.000001 3.404103 6.940292 -16.039844 -0.896999 0.000002 -0.000000 7.928599 -49.159303 7.152507 17.053247 -0.000001 0.000001 2.173910 -5.323099 2.470772 -7.244549 2.833799 -1.396298 4.843302 7.496986 7.841893 -3.781561 4.363596 0.000004 -0.000002 -34.711271 -1.948175 -107.264262 0.000000 0.000002 -10.306905 668.567002 -119.215652 656.013114 0.000005 0.000003 -12.404902 -391.558735 145.123816 -168.000428 -2.354804 -1.897197 5.063103 12.710536 8.753390 -25.495658 -4.375794 0.000001 -0.000001 12.027809 -22.924116 76.826555 0.000006 0.000004 -10.004996 -306.648801 -169.469356 -221.645950 -0.000006 0.000003 -13.174894 -176.508481 -161.705603 154.057075 2.240598 0.386800 -2.614101 135.993615 -38.779714 102.079588 -0.000001 0.000002 -18.592892 -112.893916 38.100154 132.956462 -0.000001 0.000000 -18.765797 14.303708 37.073997 -13.195849 -2.014897 -0.220898 -2.615900 -114.508367 -17.678965 -89.732928 -0.000000 0.000002 -18.633884 180.668216 26.939745 -181.211257 -0.000006 -0.000004 -18.285086 -10.774936 35.297284 -211.227452
-5.442599 26.868101 7.382809 3.173334 -7.173349 5.341743 -0.204901 1.598098 7.917307 -0.910798 23.706782 -6.048205 -0.000001 0.000003 3.404103 6.920972 -16.030661 -0.900686 0.000001 -0.000005 7.928595 -49.294660 7.200495 16.979748 -0.000004 -0.000000 2.173905 -5.278401 2.527774 -7.269047 2.833799 -1.396304 4.843304 7.314078 7.947725 -3.858729 4.363597 0.000000 -0.000007 -34.633905 -1.996834 -107.445494 -0.000002 0.000008 -10.306910 668.164403 -119.443698 655.364465 0.000003 0.000003 -12.404895 -391.786918 145.066046 -167.925665 -2.354803 -1.897206 5.063099 12.740962 8.745107 -25.482177 -4.375791 0.000002 0.000003 11.412207 -23.172136 76.352089 0.000007 0.000002 -10.004994 -307.138581 -169.396041 -223.296014 -0.000005 0.000002 -13.174894 -175.005511 -160.407443 149.627233 2.240598 0.386800 -2.614101 136.085714 -38.669895 102.043306 -0.000001 -0.000003 -18.592894 -112.958010 38.109730 132.937789 0.000001 0.000001 -18.765797 14.387010 37.103063 -13.280264 -2.014894 -0.220896 -2.615900 -114.360302 -17.784387 -89.760645 0.000001 0.000002 -18.633881 180.621675 26.972549 -181.247252 -0.000006 -0.000004 -18.285084 -10.775325 35.327695 -211.215226
-5.445300 26.889803 7.370907 3.040229 -7.222680 5.317707 -0.204901 1.598098 7.917305 -0.731651 24.060026 -6.171049 -0.000001 -0.000001 3.404102 6.914248 -16.150242 -0.913768 0.000002 0.000001 7.928604 -49.433655 7.345733 17.001876 0.000001 0.000002 2.173907 -5.277667 2.605220 -7.320130 2.833800 -1.396300 4.843310 7.185002 8.166463 -3.915292 4.363594 0.000009 -0.000004 -34.564237 -1.991078 -107.565350 -0.000004 0.000007 -10.306908 667.973048 -119.680187 654.909902 0.000000 0.000004 -12.404897 -392.061328 145.028945 -167.861270 -2.354805 -1.897202 5.063103 12.805292 8.897220 -25.504533 -4.375790 0.000002 -0.000000 10.773771 -23.443748 75.917614 0.000004 -0.000000 -10.004997 -307.673630 -169.166341 -224.925820 -0.000008 0.000002 -13.174892 -173.429022 -159.201983 145.430519 2.240600 0.386803 -2.614104 136.178631 -38.630689 102.021088 -0.000001 0.000003 -18.592892 -112.977312 38.114429 132.911151 -0.000001 0.000000 -18.765797 14.461838 37.125562 -13.337784 -2.014895 -0.220895 -2.615900 -114.197867 -17.909319 -89.747887 -0.000000 0.000005 -18.633883 180.562977 27.021697 -181.296976 -0.000006 -0.000008 -18.285084 -10.768019 35.371671 -211.224119
